<svg width="27" height="30" viewBox="0 0 27 30" fill="none" xmlns="http://www.w3.org/2000/svg">
<path d="M10.8726 20.4281C11.5417 21.6015 13.5028 22.5951 15.585 22.5951C21.7856 22.5951 26.25 17.3679 26.25 10.8774C26.25 4.65645 20.707 0 13.5778 0C4.70666 0 0 5.45455 0 11.4006C0 14.1649 1.60349 17.6004 4.17024 18.6945C4.56246 18.8636 4.77011 18.7896 4.85663 18.4461C4.92584 18.1818 5.27192 16.908 5.42765 16.3108C5.48533 16.1205 5.43342 15.9144 5.28345 15.7717C4.43556 14.8256 3.75494 13.092 3.75494 11.4746C3.75494 7.3203 7.18688 3.2981 13.0356 3.2981C18.0883 3.2981 21.6241 6.4482 21.6241 10.9619C21.6241 16.0571 18.8151 19.5877 15.1582 19.5877C13.1394 19.5877 11.6282 18.0603 12.1127 16.1839C12.6953 13.9429 13.8143 11.5275 13.8143 9.91015C13.8143 8.46195 12.9664 7.25687 11.2129 7.25687C9.14799 7.25687 7.49258 9.21247 7.49258 11.8288C7.49258 13.4989 8.10976 14.6247 8.10976 14.6247C8.10976 14.6247 6.07367 22.5159 5.69875 23.9852C5.27192 25.6765 5.46803 28.1025 5.6526 29.5825C6.07367 29.7304 6.48896 29.8784 6.92156 30C7.75791 28.7685 9.10762 26.6015 9.58636 24.8996C9.84015 24.0275 10.8726 20.4281 10.8726 20.4281Z" fill="white"/>
</svg>
